<svg width="36" height="36" fill="none" xmlns="http://www.w3.org/2000/svg"><path d="M12.308 23.936a4.375 4.375 0 0 1-4.375 4.375M23.975 23.936a4.375 4.375 0 0 0 4.375 4.375M18.141 23.936v5.834M28.35 7.894H7.933a2.917 2.917 0 0 0-2.917 2.917v5.833a2.917 2.917 0 0 0 2.917 2.917H28.35a2.917 2.917 0 0 0 2.916-2.917v-5.833a2.917 2.917 0 0 0-2.916-2.917Z" stroke="#434E58" stroke-width="2.463" stroke-linecap="round" stroke-linejoin="round"/><path d="M10.85 19.561v-4.375a1.459 1.459 0 0 1 1.458-1.458h11.667a1.458 1.458 0 0 1 1.458 1.458v4.375" stroke="#434E58" stroke-width="2.463" stroke-linecap="round" stroke-linejoin="round"/></svg>