<svg width="31" height="31" fill="none" xmlns="http://www.w3.org/2000/svg"><path d="M9.824 8.55h11.25V10.1H9.824V8.55ZM17.321 3.863a2.174 2.174 0 0 0-.558-1.442 1.786 1.786 0 0 0-1.314-.595c-.492 0-.964.214-1.315.595-.35.381-.55.9-.557 1.442a4.37 4.37 0 0 0-1.581 1.5 4.956 4.956 0 0 0-.738 2.152h8.382a4.96 4.96 0 0 0-.738-2.152 4.37 4.37 0 0 0-1.581-1.5Zm-2.728-.39c.074-.182.194-.337.346-.446a.875.875 0 0 1 .51-.166c.181 0 .358.057.51.166.152.109.272.264.346.446a4.033 4.033 0 0 0-.856-.096 4.27 4.27 0 0 0-.856.096Zm.607 1.989a2.19 2.19 0 0 0-.954.35 2.45 2.45 0 0 0-.733.762.486.486 0 0 1-.167.163.433.433 0 0 1-.217.06.428.428 0 0 1-.268-.088.528.528 0 0 1-.194-.332.564.564 0 0 1 .073-.387c.269-.434.62-.798 1.03-1.066a3.08 3.08 0 0 1 1.34-.49.44.44 0 0 1 .341.117.554.554 0 0 1 .063.724.458.458 0 0 1-.314.187Z" fill="#434E58"/><path d="M6.542 11.136v-9.31c0-.412-.148-.806-.412-1.097a1.344 1.344 0 0 0-.994-.455h-3.75a.448.448 0 0 0-.331.151.546.546 0 0 0-.138.366v2.07c0 .136.05.268.138.365a.448.448 0 0 0 .331.151h4.219v12.931c0 .137.05.269.138.366a.449.449 0 0 0 .33.152c1.294 0 2.026.662 2.865 1.432.858.781 1.828 1.671 3.464 1.671 1.65 0 2.503-.9 3.253-1.696.713-.756 1.327-1.407 2.601-1.407 1.28 0 1.894.651 2.607 1.407.75.796 1.603 1.696 3.258 1.696 1.63 0 2.606-.89 3.464-1.67.839-.771 1.565-1.433 2.864-1.433a.449.449 0 0 0 .33-.152.547.547 0 0 0 .139-.366v-5.172H6.541Z" fill="#434E58"/><path d="M24.12 20.964c-2.034 0-3.117-1.149-3.904-1.987-.661-.698-1.06-1.117-1.96-1.117-.895 0-1.293.42-1.954 1.117-.788.838-1.87 1.987-3.9 1.987-1.974 0-3.178-1.102-4.06-1.91-.646-.589-1.12-1.018-1.8-1.152v9.786c0 .137.05.268.138.365a.45.45 0 0 0 .331.152h1.913a3.16 3.16 0 0 1-.038-.517c0-.96.346-1.881.961-2.56.616-.68 1.45-1.061 2.32-1.061.87 0 1.705.381 2.32 1.06.616.68.962 1.6.962 2.56a3.15 3.15 0 0 1-.038.518h5.7a3.16 3.16 0 0 1-.037-.517c0-.96.345-1.881.96-2.56.616-.68 1.45-1.061 2.321-1.061.87 0 1.705.381 2.32 1.06.616.68.961 1.6.961 2.56a3.15 3.15 0 0 1-.037.518h1.912a.45.45 0 0 0 .331-.152.547.547 0 0 0 .138-.365V17.9c-.684.135-1.153.56-1.8 1.154-.881.807-2.09 1.909-4.06 1.909Z" fill="#434E58"/><path d="M12.168 30.274c1.294 0 2.343-1.158 2.343-2.586 0-1.429-1.05-2.586-2.343-2.586-1.295 0-2.344 1.157-2.344 2.586 0 1.428 1.05 2.586 2.344 2.586ZM24.355 30.274c1.294 0 2.344-1.158 2.344-2.586 0-1.429-1.05-2.586-2.344-2.586-1.294 0-2.344 1.157-2.344 2.586 0 1.428 1.05 2.586 2.344 2.586ZM28.574 1.308a.546.546 0 0 0-.138-.365.449.449 0 0 0-.331-.152h-4.688a.45.45 0 0 0-.33.152.547.547 0 0 0-.138.366V2.86h5.625V1.31ZM25.761 7.515c.746 0 1.461-.328 1.988-.91.528-.581.824-1.37.825-2.193v-.517h-5.625v.517c0 .823.297 1.612.824 2.194.527.581 1.242.909 1.988.91ZM25.761 8.55c-.482 0-.96-.104-1.406-.305v.222c0 .356-.098.704-.283.996a1.607 1.607 0 0 1-.748.639h4.875a1.608 1.608 0 0 1-.749-.639 1.867 1.867 0 0 1-.282-.996v-.222a3.405 3.405 0 0 1-1.407.305Z" fill="#434E58"/></svg>