<svg width="31" height="20" fill="none" xmlns="http://www.w3.org/2000/svg"><path d="M5.697 2.857h-2.25c-.624 0-1.125.478-1.125 1.072V8.57H1.197a.367.367 0 0 0-.375.358v2.142c0 .197.168.358.375.358h1.125v4.642c0 .594.501 1.072 1.125 1.072h2.25c.623 0 1.125-.478 1.125-1.072V3.93c0-.594-.502-1.072-1.125-1.072Zm24.75 5.714h-1.125V3.93c0-.594-.502-1.072-1.125-1.072h-2.25c-.624 0-1.125.478-1.125 1.072V16.07c0 .594.501 1.072 1.125 1.072h2.25c.623 0 1.125-.478 1.125-1.072V11.43h1.125c.206 0 .375-.161.375-.358V8.93a.367.367 0 0 0-.375-.358ZM22.197 0h-2.25c-.624 0-1.125.478-1.125 1.071v7.5h-6v-7.5C12.822.478 12.32 0 11.697 0h-2.25c-.624 0-1.125.478-1.125 1.071V18.93c0 .593.501 1.071 1.125 1.071h2.25c.623 0 1.125-.478 1.125-1.071v-7.5h6v7.5c0 .593.501 1.071 1.125 1.071h2.25c.623 0 1.125-.478 1.125-1.071V1.07C23.322.478 22.82 0 22.197 0Z" fill="#434E58"/></svg>