<svg width="54" height="54" fill="none" xmlns="http://www.w3.org/2000/svg"><g filter="url('#filter0_d_854_13399')"><rect x="4.5" y=".5" width="45" height="45" rx="15" fill="#2196F3"/><path fill-rule="evenodd" clip-rule="evenodd" d="M27.352 9.559c2.44-1.542 5.68-1.968 8.478-1.071 6.089 1.963 7.979 8.6 6.288 13.882-2.608 8.295-13.749 14.483-14.221 14.742a1.114 1.114 0 0 1-1.079.003c-.47-.256-11.529-6.352-14.224-14.743-.002 0-.002-.002-.002-.002-1.692-5.283.192-11.922 6.275-13.882a10.093 10.093 0 0 1 8.485 1.07Zm-7.795 1.07c-4.922 1.588-6.158 6.881-4.821 11.056 2.103 6.543 10.411 11.833 12.62 13.143 2.215-1.323 10.583-6.672 12.619-13.137 1.336-4.18.096-9.473-4.833-11.061-2.388-.767-5.174-.3-7.097 1.188-.402.309-.96.315-1.365.009a7.85 7.85 0 0 0-7.123-1.197Zm14.145 2.98a5.288 5.288 0 0 1 3.652 4.612 1.125 1.125 0 0 1-2.244.183 3.036 3.036 0 0 0-2.098-2.653 1.126 1.126 0 0 1-.726-1.416 1.13 1.13 0 0 1 1.416-.727Z" fill="#fff"/></g><defs><filter id="filter0_d_854_13399" x=".5" y=".5" width="53" height="53" filterUnits="userSpaceOnUse" color-interpolation-filters="sRGB"><feFlood flood-opacity="0" result="BackgroundImageFix"/><feColorMatrix in="SourceAlpha" values="0 0 0 0 0 0 0 0 0 0 0 0 0 0 0 0 0 0 127 0" result="hardAlpha"/><feOffset dy="4"/><feGaussianBlur stdDeviation="2"/><feComposite in2="hardAlpha" operator="out"/><feColorMatrix values="0 0 0 0 0 0 0 0 0 0 0 0 0 0 0 0 0 0 0.25 0"/><feBlend in2="BackgroundImageFix" result="effect1_dropShadow_854_13399"/><feBlend in="SourceGraphic" in2="effect1_dropShadow_854_13399" result="shape"/></filter></defs></svg>