<svg width="30" height="30" fill="none" xmlns="http://www.w3.org/2000/svg"><rect width="30" height="30" rx="10" fill="#fff"/><path fill-rule="evenodd" clip-rule="evenodd" d="M15.235 6.04c1.626-1.029 3.786-1.313 5.652-.715 4.059 1.31 5.319 5.734 4.192 9.255-1.739 5.53-9.166 9.655-9.481 9.828a.743.743 0 0 1-.719.002c-.313-.17-7.686-4.235-9.483-9.829h-.001c-1.128-3.523.128-7.949 4.183-9.256a6.729 6.729 0 0 1 5.657.714Zm-5.197.713c-3.281 1.058-4.105 4.587-3.214 7.37 1.402 4.362 6.941 7.89 8.413 8.762 1.477-.882 7.056-4.448 8.413-8.758.891-2.786.064-6.315-3.222-7.374-1.592-.51-3.449-.2-4.731.792a.75.75 0 0 1-.91.006 5.234 5.234 0 0 0-4.749-.798Zm9.43 1.986a3.525 3.525 0 0 1 2.435 3.075.75.75 0 0 1-1.496.122 2.024 2.024 0 0 0-1.399-1.769.75.75 0 0 1 .46-1.428Z" fill="#000"/></svg>