<svg width="31" height="31" fill="none" xmlns="http://www.w3.org/2000/svg"><path d="M30.73 7.555h-30v22.5h30v-22.5Zm-15 17.5c-4.143 0-7.5-2.798-7.5-6.25 0-3.453 3.357-6.25 7.5-6.25s7.5 2.797 7.5 6.25c0 3.452-3.357 6.25-7.5 6.25Z" fill="#434E58"/><path d="M15.73 23.805c3.314 0 6-2.239 6-5h-12c0 2.761 2.687 5 6 5ZM30.73.055h-30v6.25h30V.055Zm-27 4.375c0 .345-.336.625-.75.625s-.75-.28-.75-.625v-2.5c0-.345.336-.625.75-.625s.75.28.75.625v2.5Zm17.25.625c-1.243 0-2.25-.839-2.25-1.875s1.007-1.875 2.25-1.875c1.244 0 2.25.839 2.25 1.875s-1.006 1.875-2.25 1.875Zm6 0c-1.243 0-2.25-.839-2.25-1.875s1.007-1.875 2.25-1.875c1.244 0 2.25.839 2.25 1.875s-1.006 1.875-2.25 1.875Z" fill="#434E58"/></svg>