<svg width="30" height="35" fill="none" xmlns="http://www.w3.org/2000/svg"><path fill-rule="evenodd" clip-rule="evenodd" d="m14.382 34.823.618-.795-.618.795Zm1.236 0 .003-.003.01-.006.034-.022.126-.083a40.218 40.218 0 0 0 2.082-1.511 44.69 44.69 0 0 0 4.902-4.414C26.319 25.064 30 19.755 30 13.686c0-3.628-1.579-7.108-4.391-9.675C22.796 1.443 18.98 0 15 0 11.02 0 7.204 1.443 4.391 4.01 1.58 6.579 0 10.059 0 13.687c0 6.07 3.682 11.378 7.225 15.098a44.688 44.688 0 0 0 6.524 5.61 27.385 27.385 0 0 0 .586.398l.034.022.01.006.003.003c.37.236.866.236 1.236 0ZM15 34.028l.618.795-.618-.795Zm5.357-20.417c0 2.685-2.398 4.861-5.357 4.861s-5.357-2.176-5.357-4.86c0-2.685 2.398-4.862 5.357-4.862s5.357 2.177 5.357 4.861Z" fill="#78828A"/></svg>