<svg width="31" height="31" fill="none" xmlns="http://www.w3.org/2000/svg"><path d="M22.041 22.4a7.43 7.43 0 0 1-4.922 1.46h-4.084v7.085H8.95V11.02h8.426a6.745 6.745 0 0 1 4.643 1.528 6.056 6.056 0 0 1 1.74 4.76 6.221 6.221 0 0 1-1.719 5.092Zm-3.224-7.174a3.285 3.285 0 0 0-2.15-.665h-3.632v5.868h3.632a3.12 3.12 0 0 0 2.15-.709c.55-.592.83-1.396.774-2.214a2.772 2.772 0 0 0-.774-2.28ZM30.445 9.27a1.121 1.121 0 0 0-.515-1.461L15.592.945 1.17 7.81c-.54.256-.775.916-.526 1.472.25.556.89.8 1.43.542l13.52-6.442 13.52 6.42a1.061 1.061 0 0 0 1.418-.531h-.086Z" fill="#434E58"/></svg>