<svg width="31" height="31" fill="none" xmlns="http://www.w3.org/2000/svg"><path d="M26.016 21.046c-.843-5.295-5.686-9.6-10.8-9.6-5.558 0-10.444 4.725-10.915 10.545-.186 2.25.5 4.38 1.914 5.985 1.4 1.605 3.372 2.49 5.515 2.49h6.685c2.415 0 4.53-.99 5.972-2.775 1.443-1.785 2.014-4.155 1.629-6.645ZM13.443 9.256c2.312 0 4.186-1.968 4.186-4.395 0-2.427-1.874-4.395-4.186-4.395S9.257 2.434 9.257 4.86c0 2.427 1.874 4.395 4.186 4.395ZM22.958 11.008c1.925 0 3.486-1.638 3.486-3.66 0-2.02-1.56-3.66-3.486-3.66-1.925 0-3.486 1.64-3.486 3.66 0 2.022 1.56 3.66 3.486 3.66ZM28.115 16.862c1.538 0 2.785-1.31 2.785-2.925 0-1.615-1.247-2.925-2.785-2.925-1.539 0-2.786 1.31-2.786 2.925 0 1.616 1.247 2.925 2.786 2.925ZM4.386 13.938c1.925 0 3.486-1.639 3.486-3.66s-1.56-3.66-3.486-3.66C2.461 6.618.9 8.257.9 10.278s1.561 3.66 3.486 3.66Z" fill="#434E58"/></svg>