<svg width="31" height="26" fill="none" xmlns="http://www.w3.org/2000/svg"><path d="M24.5 9.503c.06.4.454.7.923.7h.944c.557 0 1.001-.418.938-.895a6.83 6.83 0 0 0-2.938-4.744c-1.017-.692-1.688-1.795-1.873-3.035-.06-.4-.454-.7-.923-.7h-.944c-.557 0-1.002.418-.938.896a6.83 6.83 0 0 0 2.938 4.744c1.017.692 1.688 1.794 1.873 3.034Zm-6.328 0c.06.4.454.7.923.7h.944c.557 0 1-.418.938-.895a6.83 6.83 0 0 0-2.938-4.744c-1.018-.692-1.688-1.795-1.873-3.035-.06-.4-.455-.7-.923-.7H14.3c-.557 0-1.002.418-.938.896A6.83 6.83 0 0 0 16.3 6.469c1.017.692 1.688 1.794 1.873 3.034Zm10.183 3.826H15.23l-6.5-4.063a4.265 4.265 0 0 0-2.25-.625h-2.5c-2.072 0-3.75 1.4-3.75 3.125v10.938c0 1.726 1.678 3.125 3.75 3.125h22.5c2.071 0 3.75-1.4 3.75-3.125V14.89c0-.863-.84-1.562-1.875-1.562ZM7.73 22.313c0 .216-.21.39-.469.39h-.938c-.259 0-.468-.174-.468-.39v-5.469c0-.216.21-.39.468-.39h.938c.259 0 .469.174.469.39v5.47Zm5.625 0c0 .216-.21.39-.469.39h-.938c-.258 0-.468-.174-.468-.39v-5.469c0-.216.21-.39.468-.39h.938c.259 0 .469.174.469.39v5.47Zm5.625 0c0 .216-.21.39-.469.39h-.938c-.259 0-.468-.174-.468-.39v-5.469c0-.216.21-.39.468-.39h.938c.259 0 .469.174.469.39v5.47Zm5.625 0c0 .216-.21.39-.469.39h-.938c-.259 0-.468-.174-.468-.39v-5.469c0-.216.21-.39.468-.39h.938c.259 0 .469.174.469.39v5.47ZM3.98 7.08c2.071 0 3.75-1.4 3.75-3.125C7.73 2.228 6.05.829 3.98.829 1.908.829.23 2.228.23 3.954s1.678 3.125 3.75 3.125Z" fill="#434E58"/></svg>