<svg width="31" height="16" fill="none" xmlns="http://www.w3.org/2000/svg"><path d="M9.851 10.243c.166.153.716.442 1.612.442.897 0 1.447-.289 1.612-.442.751-.692 1.618-1.058 2.506-1.058h.764c.89 0 1.756.366 2.506 1.058.166.153.716.442 1.612.442.897 0 1.447-.289 1.612-.442.697-.642 1.495-.99 2.316-1.038L19.1 5.427l.844-.603a.76.76 0 0 1 .591-.122L25.24 5.71a2.25 2.25 0 0 0 .943-4.4L21.48.3a5.26 5.26 0 0 0-4.152.861l-3.75 2.68a5.23 5.23 0 0 0-1.253 1.263L9.108 9.701c.256.151.507.325.743.542Zm20.362 1.942h-.75c-1.22 0-2.146-.395-2.629-.839-.417-.385-.921-.66-1.49-.66h-.763c-.568 0-1.072.275-1.49.66-.48.444-1.407.84-2.628.84-1.22 0-2.146-.396-2.629-.84-.417-.385-.921-.66-1.49-.66h-.763c-.568 0-1.072.275-1.49.66-.48.444-1.407.84-2.628.84-1.22 0-2.146-.396-2.629-.84-.417-.385-.921-.66-1.49-.66h-.763c-.568 0-1.072.275-1.49.66-.48.444-1.407.84-2.628.84h-.75a.75.75 0 0 0-.75.75v1.5c0 .413.336.75.75.75h.75c1.81 0 3.41-.572 4.5-1.493 1.092.921 2.69 1.492 4.5 1.492s3.41-.571 4.5-1.492c1.092.921 2.69 1.492 4.5 1.492s3.41-.571 4.5-1.492c1.092.921 2.69 1.492 4.5 1.492h.75a.75.75 0 0 0 .75-.75v-1.5a.75.75 0 0 0-.75-.75Zm-24-4.5a3.75 3.75 0 1 0 0-7.5 3.75 3.75 0 0 0 0 7.5Z" fill="#434E58"/></svg>