<svg width="30" height="30" fill="none" xmlns="http://www.w3.org/2000/svg"><path d="M28.463 10.05 20.271 8.8l-3.66-7.756A1.774 1.774 0 0 0 14.996 0c-.638 0-1.275.346-1.605 1.044L9.729 8.8l-8.192 1.248c-1.47.222-2.058 2.114-.993 3.198l5.926 6.035-1.402 8.525C4.868 29.023 5.797 30 6.837 30c.276 0 .56-.069.832-.22L15 25.756l7.328 4.025c.272.15.555.218.83.218 1.041 0 1.971-.973 1.772-2.192l-1.4-8.524 5.927-6.034c1.066-1.084.477-2.977-.992-3.2Zm-6.813 7.218-1.014 1.033.24 1.457 1.092 6.648-5.716-3.14-1.253-.688.002-18.585 2.856 6.052.626 1.326 1.4.213 6.393.974-4.626 4.71Z" fill="#FFC107"/></svg>