<svg width="31" height="45" viewBox="0 0 31 45" fill="none" xmlns="http://www.w3.org/2000/svg">
<path d="M9.89487 9.50024C10.6362 9.52616 11.352 9.65738 12.0484 9.8945L12.0772 9.92331L12.4094 10.0356C12.6913 10.131 12.9023 10.2201 13.0833 10.3249L13.1383 10.3568L13.1958 10.3839L13.6955 10.6192C13.7027 10.6239 13.7114 10.6299 13.7219 10.6371C13.7572 10.6617 13.7985 10.6922 13.8497 10.7311C13.8623 10.7406 13.8834 10.7567 13.9072 10.7748C13.9447 10.8035 13.9888 10.8371 14.0154 10.8572C14.0686 10.8972 14.1515 10.9589 14.2394 11.0153L14.2489 11.0214L14.2585 11.0274C14.3018 11.0543 14.3383 11.0768 14.3692 11.0959C14.4865 11.1684 14.5248 11.1922 14.5578 11.2188L15.4983 11.9778L16.44 11.2203C17.8491 10.0869 19.5396 9.48735 21.2636 9.5002L21.2636 9.50024H21.2748C22.0737 9.50024 22.8471 9.61911 23.5652 9.87275L23.5721 9.8752L23.5791 9.87758C28.0857 11.4199 30.0117 16.7797 28.4985 21.8873C27.6213 24.5287 26.1941 26.9309 24.3369 28.8884C21.6447 31.6316 18.7037 34.0799 15.5468 36.2074C12.3712 34.0912 9.40587 31.6379 6.68155 28.8733C4.83443 26.9125 3.40545 24.5228 2.51406 21.8806C0.978783 16.7855 2.89495 11.4195 7.47 9.84344L7.48166 9.83942L7.49325 9.83522C7.79826 9.72451 8.11109 9.6443 8.42399 9.59523H8.49494H8.60946L8.72265 9.57785C9.06542 9.5252 9.40768 9.50024 9.75493 9.50024H9.89487Z" stroke="#434E58" stroke-width="3"/>
</svg>
