<svg width="26" height="45" viewBox="0 0 26 45" fill="none" xmlns="http://www.w3.org/2000/svg">
<path d="M24.8454 27.8103L22.3429 25.0955V18.4059C22.3762 15.9218 21.5752 13.5086 20.088 11.6118C18.6007 9.71509 16.5275 8.46292 14.2513 8.08654C12.9302 7.89885 11.5873 8.01727 10.312 8.43388C9.03671 8.8505 7.85845 9.55573 6.85583 10.5025C5.85322 11.4493 5.04929 12.6159 4.4977 13.9245C3.94611 15.233 3.65954 16.6534 3.65711 18.0909V25.0955L1.15455 27.8103C0.840211 28.1551 0.627046 28.5922 0.541704 29.067C0.456362 29.5417 0.50263 30.0331 0.674725 30.4796C0.84682 30.9262 1.1371 31.3081 1.50929 31.5776C1.88148 31.8472 2.31905 31.9924 2.76731 31.9951H7.43876V32.5051C7.5037 34.0278 8.1255 35.4606 9.16792 36.4896C10.2103 37.5186 11.5884 38.0599 13 37.9947C14.4116 38.0599 15.7897 37.5186 16.8321 36.4896C17.8745 35.4606 18.4963 34.0278 18.5612 32.5051V31.9951H23.2327C23.6809 31.9924 24.1185 31.8472 24.4907 31.5776C24.8629 31.3081 25.1532 30.9262 25.3253 30.4796C25.4974 30.0331 25.5436 29.5417 25.4583 29.067C25.373 28.5922 25.1598 28.1551 24.8454 27.8103ZM15.7806 32.5051C15.7035 33.2265 15.3714 33.8881 14.8534 34.3519C14.3354 34.8157 13.6715 35.0461 13 34.9949C12.3285 35.0461 11.6646 34.8157 11.1466 34.3519C10.6286 33.8881 10.2965 33.2265 10.2194 32.5051V31.9951H15.7806V32.5051ZM3.97688 28.9953L5.61745 27.2254C5.87767 26.9463 6.08412 26.6144 6.22491 26.2489C6.36569 25.8833 6.43802 25.4914 6.43773 25.0955V18.0909C6.43849 17.0791 6.63986 16.0791 7.02833 15.1582C7.4168 14.2372 7.98337 13.4165 8.69004 12.7513C9.38716 12.0698 10.2132 11.56 11.111 11.2569C12.0089 10.9539 12.957 10.865 13.8898 10.9964C15.4977 11.278 16.9571 12.1768 17.9994 13.5273C19.0417 14.8778 19.5967 16.589 19.5623 18.3459V25.0955C19.5601 25.4903 19.6303 25.8817 19.7687 26.2472C19.907 26.6127 20.1109 26.9451 20.3686 27.2254L22.0231 28.9953H3.97688Z" fill="#434E58"/>
</svg>
