<svg width="53" height="53" viewBox="0 0 53 53" fill="none" xmlns="http://www.w3.org/2000/svg">
<circle cx="26.5" cy="26.5" r="26.5" fill="#F5F7FA"/>
<path d="M17 31C17 28.172 17 26.757 17.879 25.879C18.757 25 20.172 25 23 25H31C33.828 25 35.243 25 36.121 25.879C37 26.757 37 28.172 37 31C37 33.828 37 35.243 36.121 36.121C35.243 37 33.828 37 31 37H23C20.172 37 18.757 37 17.879 36.121C17 35.243 17 33.828 17 31Z" stroke="#434E58" stroke-width="1.5"/>
<path d="M21 25V23C21 21.4087 21.6321 19.8826 22.7574 18.7574C23.8826 17.6321 25.4087 17 27 17C28.5913 17 30.1174 17.6321 31.2426 18.7574C32.3679 19.8826 33 21.4087 33 23V25" stroke="#434E58" stroke-width="1.5" stroke-linecap="round"/>
<path d="M23 31H23.009M26.991 31H27M30.991 31H31" stroke="#434E58" stroke-width="2" stroke-linecap="round" stroke-linejoin="round"/>
</svg>
