<svg width="53" height="53" viewBox="0 0 53 53" fill="none" xmlns="http://www.w3.org/2000/svg">
<circle cx="26.5" cy="26.5" r="26.5" fill="#2196F3"/>
<path d="M13 21.1667C13 20.0616 13.4445 19.0018 14.2356 18.2204C15.0268 17.439 16.0999 17 17.2188 17H35.7812C36.9001 17 37.9732 17.439 38.7644 18.2204C39.5555 19.0018 40 20.0616 40 21.1667V32.8333C40 33.9384 39.5555 34.9982 38.7644 35.7796C37.9732 36.561 36.9001 37 35.7812 37H17.2188C16.0999 37 15.0268 36.561 14.2356 35.7796C13.4445 34.9982 13 33.9384 13 32.8333V21.1667ZM17.2188 18.6667C16.5474 18.6667 15.9036 18.9301 15.4289 19.3989C14.9542 19.8677 14.6875 20.5036 14.6875 21.1667V23.3333H38.3125V21.1667C38.3125 20.5036 38.0458 19.8677 37.5711 19.3989C37.0964 18.9301 36.4526 18.6667 35.7812 18.6667H17.2188ZM14.6875 32.8333C14.6875 33.4964 14.9542 34.1323 15.4289 34.6011C15.9036 35.0699 16.5474 35.3333 17.2188 35.3333H35.7812C36.4526 35.3333 37.0964 35.0699 37.5711 34.6011C38.0458 34.1323 38.3125 33.4964 38.3125 32.8333V25H14.6875V32.8333ZM31.3938 30.6667C31.17 30.6667 30.9554 30.7545 30.7971 30.9107C30.6389 31.067 30.55 31.279 30.55 31.5C30.55 31.721 30.6389 31.933 30.7971 32.0893C30.9554 32.2455 31.17 32.3333 31.3938 32.3333H35.1063C35.33 32.3333 35.5446 32.2455 35.7029 32.0893C35.8611 31.933 35.95 31.721 35.95 31.5C35.95 31.279 35.8611 31.067 35.7029 30.9107C35.5446 30.7545 35.33 30.6667 35.1063 30.6667H31.3938Z" fill="white"/>
</svg>
