<svg width="53" height="53" viewBox="0 0 53 53" fill="none" xmlns="http://www.w3.org/2000/svg">
<circle cx="26.5" cy="26.5" r="26.5" fill="#F5F7FA"/>
<path d="M27 25C29.2091 25 31 23.2091 31 21C31 18.7909 29.2091 17 27 17C24.7909 17 23 18.7909 23 21C23 23.2091 24.7909 25 27 25Z" stroke="#434E58" stroke-width="1.5"/>
<path d="M34.997 33C35 32.836 35 32.669 35 32.5C35 30.015 31.418 28 27 28C22.582 28 19 30.015 19 32.5C19 34.985 19 37 27 37C29.231 37 30.84 36.843 32 36.563" stroke="#434E58" stroke-width="1.5" stroke-linecap="round"/>
</svg>
