<svg width="53" height="53" viewBox="0 0 53 53" fill="none" xmlns="http://www.w3.org/2000/svg">
<circle cx="26.5" cy="26.5" r="26.5" fill="#F5F7FA"/>
<path d="M33 26V19.749C33.0001 19.6701 32.9845 19.5919 32.9543 19.519C32.9241 19.446 32.8798 19.3798 32.824 19.324L29.676 16.176C29.5636 16.0634 29.4111 16.0001 29.252 16H17.6C17.4409 16 17.2883 16.0632 17.1757 16.1757C17.0632 16.2883 17 16.4409 17 16.6V35.4C17 35.5591 17.0632 35.7117 17.1757 35.8243C17.2883 35.9368 17.4409 36 17.6 36H26M21 24H29M21 20H25M21 28H24" stroke="#434E58" stroke-width="1.5" stroke-linecap="round" stroke-linejoin="round"/>
<path d="M29 16V19.4C29 19.5591 29.0632 19.7117 29.1757 19.8243C29.2883 19.9368 29.4409 20 29.6 20H33M32.992 29.125L35.548 29.774C35.814 29.842 36.001 30.084 35.993 30.358C35.821 36.116 32.5 37 32.5 37C32.5 37 29.179 36.116 29.007 30.358C29.0039 30.2246 29.0463 30.0941 29.1271 29.988C29.208 29.8819 29.3226 29.8064 29.452 29.774L32.008 29.125C32.331 29.043 32.669 29.043 32.992 29.125Z" stroke="#434E58" stroke-width="1.5" stroke-linecap="round" stroke-linejoin="round"/>
</svg>
