<svg width="31" height="45" viewBox="0 0 31 45" fill="none" xmlns="http://www.w3.org/2000/svg">
<path d="M13.9261 30.4224L14.8302 28.4057C13.9371 27.4711 13.0914 26.4878 12.2966 25.4599C12.9603 24.5205 13.5786 23.5565 14.1516 22.5679C15.7419 19.8275 16.9734 16.8748 17.813 13.7895H21.0591V11.6842H12.0331V8H10.0274V11.6842H0.5V13.7895H4.24639C5.22617 17.3905 6.73727 20.8082 8.72475 23.9184C9.15167 23.3653 9.58385 22.7715 10.0138 22.14C8.43077 19.5458 7.19379 16.7361 6.3374 13.7895H15.7229C13.8596 20.2059 10.4236 24.9216 7.78512 27.8105C4.71423 31.1728 2.02156 32.867 1.99473 32.8838L2.09634 33.0639L2.50576 33.7895L3.01598 34.6957C3.13338 34.6229 5.92897 32.8714 9.18301 29.322C9.82569 28.621 10.4408 27.8988 11.0283 27.1555C11.9356 28.3002 12.903 29.3909 13.9261 30.4224Z" fill="#434E58"/>
<path d="M20.4149 20.1052L20.0563 20.9286L12.6211 38H14.8265L17.1188 32.7368H26.0024L28.2947 38H30.5001L22.7063 20.1052H20.4149ZM20.0563 30.6315H18.0357L20.0563 25.9923L21.5606 22.5384L25.0855 30.6315H20.0563Z" fill="#434E58"/>
</svg>
